<?xml version="1.0" encoding="utf-8"?><svg xmlns="http://www.w3.org/2000/svg" xmlns:xlink="http://www.w3.org/1999/xlink" width="1440" height="783" preserveAspectRatio="xMidYMid" viewBox="0 0 1440 783" style="z-index:1;margin-right:-2px;display:block;background-color:rgb(255, 192, 203);animation-play-state:paused" ><g transform="translate(720,391.5) scale(1,1) translate(-720,-391.5)" style="transform:matrix(1, 0, 0, 1, 0, 0);animation-play-state:paused" ><path d="M -100 463.8 C -73.09 455.19 -73.19 464.91 -47.1 464.91 S -18.93 464.93 5.81 464.93 S 32.89 460.2 58.71 460.2 S 85.52 463.7 111.61 463.7 S 139.06 467.06 164.52 467.06 S 191.81 458.79 217.42 458.79 S 244.01 471.72 270.32 471.72 S 297.94 455.83 323.23 455.83 S 351.58 460.6 376.13 460.6 S 404.39 458.6 429.03 458.6 S 456.42 455.5 481.94 455.5 S 509.98 458.55 534.84 458.55 S 562.94 456.06 587.74 456.06 S 614.48 472.5 640.65 472.5 S 669.04 466.86 693.55 466.86 S 721.92 471.97 746.45 471.97 S 773.35 455.19 799.35 455.19 S 825.84 459.76 852.26 459.76 S 879.36 456.29 905.16 456.29 S 932.28 461.46 958.06 461.46 S 985.02 472.9 1010.97 472.9 S 1038.34 472.16 1063.87 472.16 S 1090.48 467.96 1116.77 467.96 S 1145.17 468.85 1169.68 468.85 S 1196.95 462.84 1222.58 462.84 S 1249.08 462.9 1275.48 462.9 S 1303.12 455.7 1328.39 455.7 S 1356.07 456.61 1381.29 456.61 S 1409.4 469.38 1434.19 469.38 S 1461.15 456.7 1487.1 456.7 S 1514.25 456.55 1540 456.55 S 1568.06 454.92 1592.9 454.92 L 1540 783 L -100 783 Z" fill="#ffc0cb" stroke-width="0" transform="matrix(1,0,0,1,0,0)" style="transform:matrix(1, 0, 0, 1, 0, 0);animation-play-state:paused" ></path>
<path d="M -100 481.36 C -72.74 485.91 -71.36 494.03 -45.7 494.03 S -17.21 491.24 8.61 491.24 S 37.13 488.04 62.91 488.04 S 91.72 480.32 117.22 480.32 S 145.54 499.03 171.52 499.03 S 200.17 493.66 225.83 493.66 S 253.7 496.61 280.13 496.61 S 308.95 491.16 334.44 491.16 S 361.97 486.3 388.74 486.3 S 417.42 492.15 443.05 492.15 S 470.47 487.36 497.35 487.36 S 526.18 485.85 551.66 485.85 S 579.88 492.44 605.96 492.44 S 633.81 485.67 660.26 485.67 S 687.46 497.78 714.57 497.78 S 741.92 490.53 768.87 490.53 S 796.28 491.26 823.18 491.26 S 850.56 479.78 877.48 479.78 S 905.91 497.3 931.79 497.3 S 959.48 485.35 986.09 485.35 S 1013.68 487.88 1040.4 487.88 S 1068.07 479.4 1094.7 479.4 S 1122.97 497.03 1149.01 497.03 S 1177.57 492.79 1203.31 492.79 S 1232.28 480.3 1257.62 480.3 S 1286.15 492.4 1311.92 492.4 S 1340.13 493.85 1366.23 493.85 S 1394.23 492.61 1420.53 492.61 S 1447.8 492.19 1474.83 492.19 S 1502.98 489.08 1529.14 489.08 S 1557.37 501.35 1583.44 501.35 L 1540 783 L -100 783 Z" fill="#fcc9ba" stroke-width="0" transform="matrix(1,0,0,1,1.1340199708938599,0)" style="transform:matrix(1, 0, 0, 1, 1.13402, 0);animation-play-state:paused" ></path>
<path d="M -100 505.74 C -71.5 510.39 -71.68 527.34 -44.22 527.34 S -15.06 511.86 11.56 511.86 S 40.35 521.87 67.35 521.87 S 95.25 511.69 123.13 511.69 S 151.73 511.78 178.91 511.78 S 207.94 514.98 234.69 514.98 S 263.16 529.42 290.48 529.42 S 319.95 502.88 346.26 502.88 S 376.03 521.68 402.04 521.68 S 430.52 521.07 457.82 521.07 S 486.08 518.22 513.61 518.22 S 542.99 507.2 569.39 507.2 S 598.6 511.15 625.17 511.15 S 653.84 520.12 680.95 520.12 S 710.42 520.78 736.73 520.78 S 765.29 508.31 792.52 508.31 S 820.81 518.29 848.3 518.29 S 877.31 510.37 904.08 510.37 S 932.46 515.35 959.86 515.35 S 988.55 511.56 1015.65 511.56 S 1044.5 521.28 1071.43 521.28 S 1101.07 520.31 1127.21 520.31 S 1156.17 526.83 1182.99 526.83 S 1211.13 504.45 1238.78 504.45 S 1268.1 514.63 1294.56 514.63 S 1323.71 529.22 1350.34 529.22 S 1380.08 515.64 1406.12 515.64 S 1434.42 514.58 1461.9 514.58 S 1490.83 518.97 1517.69 518.97 S 1546.84 509.94 1573.47 509.94 L 1540 783 L -100 783 Z" fill="#eed5b4" stroke-width="0" transform="matrix(1,0,0,1,3.5863146781921387,0)" style="transform:matrix(1, 0, 0, 1, 3.58631, 0);animation-play-state:paused" ></path>
<path d="M -100 547.57 C -70.44 541.64 -70.32 549.37 -42.66 549.37 S -13.03 543.19 14.69 543.19 S 43.42 552.03 72.03 552.03 S 102.47 528.35 129.37 528.35 S 159.4 540.69 186.71 540.69 S 215.41 531.71 244.06 531.71 S 274.62 542.6 301.4 542.6 S 331.28 541.71 358.74 541.71 S 387.59 545.39 416.08 545.39 S 445.97 536.29 473.43 536.29 S 502.8 544.77 530.77 544.77 S 559.88 540.9 588.11 540.9 S 618.15 548.13 645.45 548.13 S 675.99 528.11 702.8 528.11 S 732.84 543.31 760.14 543.31 S 789.93 542.52 817.48 542.52 S 847.63 543.93 874.83 543.93 S 903.65 541.98 932.17 541.98 S 962.27 557.29 989.51 557.29 S 1020.02 537.24 1046.85 537.24 S 1076.29 556.29 1104.2 556.29 S 1134.17 539.22 1161.54 539.22 S 1190.46 550.97 1218.88 550.97 S 1248.85 532.59 1276.22 532.59 S 1305.67 543.67 1333.57 543.67 S 1364.15 548.43 1390.91 548.43 S 1420.15 551.28 1448.25 551.28 S 1477.24 531.89 1505.59 531.89 S 1535.82 532.52 1562.94 532.52 L 1540 783 L -100 783 Z" fill="#dde0bc" stroke-width="0" transform="matrix(1,0,0,1,6.4136857986450195,0)" style="transform:matrix(1, 0, 0, 1, 6.41369, 0);animation-play-state:paused" ></path>
<path d="M -100 566.03 C -70.23 557.21 -69.09 570.77 -41.01 570.77 S -10.1 557 17.99 557 S 47.67 579.53 76.98 579.53 S 108.15 581.05 135.97 581.05 S 166.13 586.21 194.96 586.21 S 226.38 568.39 253.96 568.39 S 284.69 579.5 312.95 579.5 S 342.53 570.52 371.94 570.52 S 402.16 576.69 430.94 576.69 S 461.62 572.88 489.93 572.88 S 520.95 580.99 548.92 580.99 S 579.88 560.31 607.91 560.31 S 638.52 568.11 666.91 568.11 S 698.17 564.54 725.9 564.54 S 756.24 567.5 784.89 567.5 S 815.71 574.62 843.88 574.62 S 875.24 577.05 902.88 577.05 S 933.12 562.53 961.87 562.53 S 992.23 570.05 1020.86 570.05 S 1050.46 559.87 1079.86 559.87 S 1109.74 553.47 1138.85 553.47 S 1168.62 567.71 1197.84 567.71 S 1228.83 568.11 1256.83 568.11 S 1287.26 566.83 1315.83 566.83 S 1345.68 575.06 1374.82 575.06 S 1404.51 576.03 1433.81 576.03 S 1464.73 577.72 1492.81 577.72 S 1522.71 552.5 1551.8 552.5 L 1540 783 L -100 783 Z" fill="#d0e8cd" stroke-width="0" transform="matrix(1,0,0,1,8.86598014831543,0)" style="transform:matrix(1, 0, 0, 1, 8.86598, 0);animation-play-state:paused" ></path>
<path d="M -100 576.16 C -67.74 590.65 -67.73 576.61 -39.26 576.61 S -7.45 596.44 21.48 596.44 S 53.72 612.49 82.22 612.49 S 113.69 593.61 142.96 593.61 S 174.29 596.85 203.7 596.85 S 234.11 580.31 264.44 580.31 S 296.63 607.25 325.19 607.25 S 355.7 577.15 385.93 577.15 S 417.69 609.19 446.67 609.19 S 477.28 609.14 507.41 609.14 S 538.99 597.31 568.15 597.31 S 598.77 583.44 628.89 583.44 S 660.57 576.8 689.63 576.8 S 720.37 587.43 750.37 587.43 S 781.5 608.54 811.11 608.54 S 841.5 592.24 871.85 592.24 S 902.34 602.96 932.59 602.96 S 964.63 575.85 993.33 575.85 S 1024.98 612.59 1054.07 612.59 S 1085.06 595.11 1114.81 595.11 S 1145.5 605.82 1175.56 605.82 S 1207.21 583.29 1236.3 583.29 S 1268.13 575.63 1297.04 575.63 S 1327.55 577.74 1357.78 577.74 S 1388.61 608.42 1418.52 608.42 S 1450.22 590.2 1479.26 590.2 S 1510.91 613.53 1540 613.53 S 1571.35 581.48 1600.74 581.48 L 1540 783 L -100 783 Z" fill="#caeee1" stroke-width="0" transform="matrix(1,0,0,1,10,0)" style="transform:matrix(1, 0, 0, 1, 10, 0);animation-play-state:paused" ></path>
<path d="M -100 616.16 C -67 617.1 -68.16 632.52 -37.4 632.52 S -4.61 619.32 25.19 619.32 S 57.1 642.37 87.79 642.37 S 120.01 604.86 150.38 604.86 S 183.29 633.6 212.98 633.6 S 244.94 640.22 275.57 640.22 S 308.23 633.84 338.17 633.84 S 370.57 618.41 400.76 618.41 S 433.22 638.89 463.36 638.89 S 495.29 618.17 525.95 618.17 S 557.9 640.83 588.55 640.83 S 620.55 602.09 651.15 602.09 S 683.93 636.58 713.74 636.58 S 746.84 599.89 776.34 599.89 S 808.89 636.61 838.93 636.61 S 871.3 603.14 901.53 603.14 S 934.58 629.11 964.12 629.11 S 995.9 632.66 1026.72 632.66 S 1058.61 631.64 1089.31 631.64 S 1121.77 635.8 1151.91 635.8 S 1183.96 633.16 1214.5 633.16 S 1247.75 600.99 1277.1 600.99 S 1308.92 627.62 1339.69 627.62 S 1371.86 632.03 1402.29 632.03 S 1434.85 638.65 1464.89 638.65 S 1497.21 613.33 1527.48 613.33 S 1558.85 627.21 1590.08 627.21 L 1540 783 L -100 783 Z" fill="#d0f0f3" stroke-width="0" transform="matrix(1,0,0,1,8.86598014831543,0)" style="transform:matrix(1, 0, 0, 1, 8.86598, 0);animation-play-state:paused" ></path>
<path d="M -100 641.45 C -67.4 637.36 -65.8 664.65 -35.43 664.65 S -1.41 628.31 29.13 628.31 S 63.04 669.41 93.7 669.41 S 126.35 636.11 158.27 636.11 S 191.28 660.63 222.83 660.63 S 255.94 630.49 287.4 630.49 S 321.33 653.63 351.97 653.63 S 385.22 642.93 416.54 642.93 S 449.76 663 481.1 663 S 515.12 627.83 545.67 627.83 S 579.79 665.58 610.24 665.58 S 643.22 625.94 674.8 625.94 S 707.24 661.7 739.37 661.7 S 771.91 640.23 803.94 640.23 S 836.35 629.71 868.5 629.71 S 901.59 635.57 933.07 635.57 S 966.14 653.12 997.64 653.12 S 1030.41 640.81 1062.2 640.81 S 1096.33 665.95 1126.77 665.95 S 1159.34 639.07 1191.34 639.07 S 1225.47 639.45 1255.91 639.45 S 1289.73 661.27 1320.47 661.27 S 1354 668.13 1385.04 668.13 S 1418.63 640.9 1449.61 640.9 S 1482.38 654.75 1514.17 654.75 S 1547 627.97 1578.74 627.97 L 1540 783 L -100 783 Z" fill="#def1fd" stroke-width="0" transform="matrix(1,0,0,1,6.4136857986450195,0)" style="transform:matrix(1, 0, 0, 1, 6.41369, 0);animation-play-state:paused" ></path>
<path d="M -100 655.48 C -66.18 661.22 -65.24 687.64 -33.33 687.64 S 1.48 652.16 33.33 652.16 S 66.94 685.91 100 685.91 S 133.83 657.97 166.67 657.97 S 200.4 666.52 233.33 666.52 S 266.72 657.97 300 657.97 S 334.88 684.34 366.67 684.34 S 401.27 666.64 433.33 666.64 S 468.02 686.31 500 686.31 S 533.49 694.97 566.67 694.97 S 601.1 689.88 633.33 689.88 S 667.51 654.51 700 654.51 S 735.28 679.68 766.67 679.68 S 801.58 655.88 833.33 655.88 S 867.29 688.59 900 688.59 S 933.66 664.6 966.67 664.6 S 1000.57 691.85 1033.33 691.85 S 1068.26 655.36 1100 655.36 S 1133.58 688.86 1166.67 688.86 S 1200.5 656.94 1233.33 656.94 S 1268.45 694.87 1300 694.87 S 1334.09 667.41 1366.67 667.41 S 1401.28 687.32 1433.33 687.32 S 1466.94 656.1 1500 656.1 S 1534.89 694.38 1566.67 694.38 L 1540 783 L -100 783 Z" fill="#edf2ff" stroke-width="0" transform="matrix(1,0,0,1,3.5863142013549805,0)" style="transform:matrix(1, 0, 0, 1, 3.58631, 0);animation-play-state:paused" ></path>
<path d="M -100 673.64 C -65.52 675.68 -64.11 720.68 -31.09 720.68 S 4.81 677.77 37.82 677.77 S 73.63 714.4 106.72 714.4 S 141.34 676.11 175.63 676.11 S 211.07 726.74 244.54 726.74 S 280.06 714.61 313.45 714.61 S 347.9 707.9 382.35 707.9 S 417.74 687.97 451.26 687.97 S 487.07 725.64 520.17 725.64 S 556.45 683.14 589.08 683.14 S 624.89 722.56 657.98 722.56 S 693.24 691.55 726.89 691.55 S 761.9 717.03 795.8 717.03 S 830.8 689.48 864.71 689.48 S 900.57 690.19 933.61 690.19 S 968.76 683.56 1002.52 683.56 S 1038.48 687.25 1071.43 687.25 S 1107.78 716.67 1140.34 716.67 S 1176.44 713.73 1209.24 713.73 S 1245.45 672.84 1278.15 672.84 S 1314.54 715.24 1347.06 715.24 S 1382.9 674.06 1415.97 674.06 S 1451.12 718.09 1484.87 718.09 S 1519.6 677.94 1553.78 677.94 L 1540 783 L -100 783 Z" fill="#f9f5ff" stroke-width="0" transform="matrix(1,0,0,1,1.1340198516845703,0)" style="transform:matrix(1, 0, 0, 1, 1.13402, 0);animation-play-state:paused" ></path></g></svg>